<?xml version="1.0" encoding="utf-8"?>
<!-- Generator: Adobe Illustrator 24.0.0, SVG Export Plug-In . SVG Version: 6.00 Build 0)  -->
<svg version="1.1" id="Layer_1" xmlns="http://www.w3.org/2000/svg" xmlns:xlink="http://www.w3.org/1999/xlink" x="0px" y="0px"
	 viewBox="0 0 100 125" style="enable-background:new 0 0 100 125;" xml:space="preserve">
<style type="text/css">
	.st0{fill:#E74C3C;}
</style>
<g>
	<path class="st0" d="M51.2,21.7c4.9,0,8.9-4,8.9-8.9s-4-8.9-8.9-8.9s-8.9,4-8.9,8.9S46.3,21.7,51.2,21.7z M63.9,24.8H38.4
		c-2.5,0-4.5,2.4-4.3,5.2l1.7,27c0.1,2.3,2,4.1,4.3,4.1h0.4l2.6,31.8c0.1,1.7,1.5,3,3.1,3h9.9c1.6,0,3-1.3,3.1-3l2.6-31.8h0.4
		c2.2,0,4.1-1.8,4.3-4.1l1.7-27C68.4,27.2,66.5,24.8,63.9,24.8z"/>
</g>
</svg>
