<?xml version="1.0" encoding="utf-8"?>
<!-- Generator: Adobe Illustrator 24.0.0, SVG Export Plug-In . SVG Version: 6.00 Build 0)  -->
<svg version="1.1" id="Layer_1" xmlns="http://www.w3.org/2000/svg" xmlns:xlink="http://www.w3.org/1999/xlink" x="0px" y="0px"
	 viewBox="0 0 100 125" style="enable-background:new 0 0 100 125;" xml:space="preserve">
<style type="text/css">
	.st0{fill:#E74C3C;}
</style>
<g>
	<circle class="st0" cx="50" cy="17.9" r="9"/>
	<path class="st0" d="M61.3,30.1c-0.7-0.4-1.5-0.6-2.3-0.6c-1.4,0-2.5,0.9-3.6,1.8c-1.4,1.2-2.7,1.9-5.3,1.9s-4-0.8-5.3-1.9
		c-1.1-0.9-2.2-1.8-3.6-1.8c-0.8,0-1.6,0.2-2.3,0.6c-2.3,1.4-7.1,5.9-7.1,18.1c0,12,3.7,15.9,5.6,17.1c0.8,0.5,1.3,1.3,1.4,2.2
		l1.9,18.6c0,0,0.4,5,9.4,5s9.4-5,9.4-5l1.9-18.6c0.1-0.9,0.7-1.7,1.4-2.2c1.9-1.2,5.6-5.1,5.6-17.1C68.4,35.9,63.6,31.5,61.3,30.1z
		"/>
	<ellipse transform="matrix(0.9732 -0.2298 0.2298 0.9732 -4.4269 5.6346)" class="st0" cx="22" cy="21.8" rx="8" ry="8"/>
	<ellipse transform="matrix(0.7071 -0.7071 0.7071 0.7071 7.4161 61.5592)" class="st0" cx="78" cy="21.8" rx="8" ry="8"/>
	<path class="st0" d="M88.1,32.7c-0.6-0.4-1.3-0.6-2-0.6h0c-0.9,0-1.8,0.3-2.5,1c-1.5,1.4-2.7,2.4-5.5,2.4c-2.3,0-3.6-0.7-4.8-1.7
		c-1-0.8-2-1.6-3.2-1.6c-0.4,0-0.9,0.1-1.3,0.2c2,3.4,3.6,8.4,3.6,15.9c0,7.7-2.4,13.7-3.7,16.4c-0.5,1-0.7,2.1-0.6,3.3l1.5,14.8
		c0,0,0.4,4.5,8.4,4.5c8,0,8.4-4.5,8.4-4.5L88.1,66c0.1-0.8,0.6-1.5,1.3-1.9c1.7-1.1,5-4.5,5-15.2C94.4,37.9,90.2,33.9,88.1,32.7z"
		/>
	<path class="st0" d="M27.6,48.2c0-7.4,1.6-12.5,3.6-15.9c-0.4-0.1-0.8-0.2-1.3-0.2c-1.3,0-2.3,0.8-3.2,1.6c-1.2,1-2.4,1.7-4.8,1.7
		c-2.8,0-4-1-5.4-2.4c-0.7-0.6-1.6-1-2.6-1h0c-0.7,0-1.4,0.2-2,0.6c-2.1,1.3-6.3,5.2-6.3,16.2c0,10.7,3.3,14.2,5,15.2
		c0.7,0.4,1.1,1.1,1.3,1.9l1.7,16.6c0,0,0.4,4.5,8.4,4.5c8,0,8.4-4.5,8.4-4.5s1-10,1.5-14.5c0.1-1.3-0.1-2.6-0.8-3.8
		C29.1,61.1,27.6,56.1,27.6,48.2z"/>
</g>
</svg>
